<?xml version="1.0" standalone="no"?>
<!DOCTYPE svg PUBLIC "-//W3C//DTD SVG 20010904//EN"
 "http://www.w3.org/TR/2001/REC-SVG-20010904/DTD/svg10.dtd">
<svg version="1.0" xmlns="http://www.w3.org/2000/svg"
 width="457.000000pt" height="503.000000pt" viewBox="0 0 457.000000 503.000000"
 preserveAspectRatio="xMidYMid meet">

<g transform="translate(0.000000,503.000000) scale(0.100000,-0.100000)"
fill="#000000" stroke="none">
<path d="M1391 4614 c-19 -24 -20 -35 -14 -159 7 -150 -6 -209 -52 -239 -34
-22 -130 -46 -186 -46 -32 0 -55 -6 -73 -21 l-26 -20 0 -223 c0 -203 2 -224
18 -239 17 -16 109 -17 1115 -17 1084 0 1097 0 1117 20 19 19 20 33 20 235 0
216 0 216 -25 240 -19 20 -35 25 -72 25 -61 0 -155 22 -188 44 -52 34 -64 100
-55 295 7 146 96 131 -800 131 l-759 0 -20 -26z"/>
<path d="M783 3996 c-75 -19 -160 -73 -203 -131 -51 -68 -66 -100 -79 -170
-16 -83 -15 -3156 1 -3229 30 -142 130 -251 269 -290 50 -15 195 -16 1425 -14
l1369 3 67 32 c81 38 146 102 185 181 l28 57 0 1645 0 1645 -27 57 c-68 146
-206 228 -384 228 l-54 0 0 -157 c0 -178 -9 -210 -69 -250 l-34 -23 -1099 0
c-984 0 -1104 2 -1133 16 -63 30 -69 50 -75 239 l-5 170 -65 2 c-36 1 -88 -4
-117 -11z m955 -612 c16 -11 22 -25 22 -50 0 -32 -11 -46 -122 -153 -68 -65
-145 -139 -173 -164 -65 -61 -94 -62 -146 -7 -61 64 -139 160 -139 171 0 25
32 67 55 73 34 9 55 -4 109 -66 l46 -52 47 44 c27 25 89 85 139 133 96 91 119
102 162 71z m1400 -150 c29 -20 30 -74 1 -100 -20 -18 -40 -19 -360 -18 -314
0 -340 1 -359 19 -24 22 -26 71 -3 97 15 17 39 18 357 18 293 0 345 -2 364
-16z m-1415 -575 c30 -16 37 -28 37 -65 0 -26 -21 -51 -162 -185 -172 -165
-197 -184 -228 -174 -24 8 -176 176 -185 205 -11 34 24 74 67 78 31 3 39 -2
82 -52 26 -31 53 -56 59 -56 7 0 57 45 112 101 97 98 169 159 187 159 5 0 19
-5 31 -11z m1417 -159 c27 -27 26 -74 -2 -100 -21 -19 -33 -20 -358 -20 -381
0 -380 0 -380 70 0 70 -1 70 382 70 325 0 339 -1 358 -20z m-1398 -587 c10 -9
18 -30 18 -49 0 -29 -18 -49 -165 -191 -91 -87 -174 -162 -185 -167 -35 -16
-65 3 -142 93 -91 105 -101 129 -64 165 45 45 68 37 149 -53 l38 -42 137 131
c112 107 142 130 166 130 16 0 38 -7 48 -17z m1397 -147 c27 -24 27 -70 1 -96
-19 -19 -33 -20 -362 -20 -304 0 -343 2 -360 17 -36 32 -18 97 32 116 8 3 162
5 341 4 306 -2 328 -3 348 -21z m-1401 -582 c16 -11 22 -25 22 -50 0 -32 -12
-47 -127 -158 -201 -193 -217 -206 -248 -206 -30 0 -62 29 -156 142 -41 50
-49 65 -44 87 8 33 23 48 58 57 25 6 35 0 89 -56 l60 -62 46 44 c26 23 49 45
52 48 3 3 44 42 91 88 91 86 114 96 157 66z m1400 -150 c28 -19 30 -74 4 -97
-16 -15 -58 -17 -361 -17 -310 -1 -345 1 -362 16 -23 21 -25 71 -2 96 15 17
39 18 357 18 293 0 345 -2 364 -16z"/>
</g>
</svg>
