<svg xmlns="http://www.w3.org/2000/svg" version="1.0" width="200.000000pt" height="200.000000pt" viewBox="0 0 200.000000 200.000000" preserveAspectRatio="xMidYMid meet">

<g transform="translate(0.000000,200.000000) scale(0.100000,-0.100000)" fill="#ffffff" stroke="none">
<path d="M1044 1851 c-37 -23 -48 -49 -69 -173 -21 -122 -74 -276 -115 -336 -44 -64 -108 -113 -223 -173 l-97 -50 2 -432 3 -432 125 -42 c221 -74 253 -78 615 -78 316 0 320 0 357 23 54 34 82 98 75 172 -5 55 -4 59 18 64 70 18 122 110 111 195 -6 46 -5 50 16 56 29 9 76 52 94 87 20 39 18 122 -6 167 -19 38 -19 39 1 77 28 54 23 146 -10 193 -47 66 -72 71 -389 71 l-282 0 18 38 c65 127 74 320 21 442 -50 116 -182 181 -265 131z" fill="#ffffff"/>
<path d="M53 1155 l-23 -16 0 -464 c0 -449 1 -465 19 -475 12 -6 94 -10 199 -10 161 0 181 2 195 18 15 17 17 64 17 468 0 373 -2 454 -14 470 -13 17 -30 19 -193 22 -150 2 -181 0 -200 -13z" fill="#ffffff"/>
</g>
</svg>